<?xml version="1.0" encoding="utf-8"?>
<svg viewBox="33.53 124.809 368.605 198.64" xmlns="http://www.w3.org/2000/svg">
  <path style="stroke: rgb(0, 0, 0); fill: rgb(250, 227, 196);" d="M 180.217 309.3 C 182.372 309.3 162.739 313.845 160.898 314.964 C 156.896 317.394 152.354 318.907 147.918 320.401 C 134.24 325.008 120.809 323.723 106.646 320.943 C 83.886 316.476 59.558 300.601 43.289 284.331 C 33.179 274.22 33.532 254.223 33.532 244.17 C 33.532 215.518 50.752 198.259 68.806 178.63 C 92.094 153.312 127.354 132.033 161.79 126.731 C 185.28 123.114 211 125.712 234.733 125.712 C 267.225 125.712 298.269 125.875 328.386 139.724 C 352.32 150.731 375.192 170.826 388.606 193.461 C 396.532 206.836 402.135 223.994 402.135 239.07 C 402.135 253.04 398.507 279.417 388.422 291.36 C 381.927 299.053 371.447 305.568 362.195 309.435 C 344.06 317.014 319.81 317.312 301.63 309.587 C 280.429 300.58 267.754 285.533 243.968 282.788 C 219.338 279.945 201.469 300.094 180.765 308.742"/>
</svg>