<?xml version="1.0" encoding="utf-8"?>
<svg viewBox="55.114 49.879 354.304 272.674" xmlns="http://www.w3.org/2000/svg">
  <path style="stroke: rgb(0, 0, 0); paint-order: stroke; fill: rgb(197, 200, 215);" d="M 325.446 317.692 C 329.556 317.692 299.46 319.995 297.846 320.432 C 290.948 322.302 282.846 322.947 275.707 322.322 C 253.294 320.359 230.678 319.743 208.373 316.315 C 174.834 311.162 138.498 300.96 110.932 280.29 C 101.192 272.987 95.246 267.87 87.038 259.03 C 76.508 247.691 69.725 239.175 60.427 218.625 C 58.379 214.099 55.855 198.117 55.228 193.214 C 54.205 185.212 60.385 161.918 60.539 162.994 C 60.681 163.977 70.102 116.108 97.68 89.397 C 133.404 54.795 196.932 45.639 247.304 51.545 C 301.716 57.925 362.888 59.113 394.641 111.657 C 408.803 135.091 409.418 159.037 409.418 182.806 C 409.418 206.247 407.995 227.246 401.294 249.743 C 395.077 270.614 387.781 287.476 372.721 300.646 C 360.555 311.286 341.423 313.302 325.308 317.697"/>
</svg>