<?xml version="1.0" standalone="no"?>
<!DOCTYPE svg PUBLIC "-//W3C//DTD SVG 20010904//EN"
 "http://www.w3.org/TR/2001/REC-SVG-20010904/DTD/svg10.dtd">
<svg version="1.0" xmlns="http://www.w3.org/2000/svg"
 width="794.000000pt" height="794.000000pt" viewBox="0 0 794.000000 794.000000"
 preserveAspectRatio="xMidYMid meet">
<metadata>
Created by potrace 1.14, written by Peter Selinger 2001-2017
</metadata>
<g transform="translate(0.000000,794.000000) scale(0.100000,-0.100000)"
fill="#000000" stroke="none">
<path d="M6357 6394 c-1 -1 -38 -5 -83 -8 -71 -6 -115 -12 -149 -20 -57 -14
-81 -21 -152 -43 -46 -14 -85 -29 -89 -34 -3 -5 -14 -9 -25 -9 -10 0 -19 -5
-19 -11 0 -5 -4 -7 -10 -4 -5 3 -10 1 -10 -5 0 -6 -4 -8 -10 -5 -5 3 -10 1
-10 -5 0 -6 -4 -9 -9 -5 -5 3 -17 -2 -25 -11 -9 -8 -16 -12 -16 -7 0 4 -4 4
-8 -2 -4 -5 -23 -17 -42 -26 -95 -45 -347 -266 -430 -378 -67 -89 -65 -88 -99
-68 -17 10 -31 16 -31 13 0 -3 -22 6 -49 19 -27 14 -55 25 -63 25 -8 0 -19 5
-26 12 -7 7 -12 8 -12 4 0 -5 -6 -4 -12 2 -11 8 -78 31 -143 48 -5 1 -25 7
-42 13 -18 5 -33 7 -33 4 0 -3 -6 -1 -13 5 -7 6 -28 14 -47 17 -19 3 -55 11
-80 16 -25 6 -55 13 -67 15 -13 2 -35 6 -50 9 -68 14 -174 27 -328 41 -144 13
-448 8 -616 -11 -32 -3 -36 -2 -32 18 11 57 -61 75 -73 19 -8 -41 -18 -55 -42
-59 -21 -3 -22 1 -22 56 0 68 -18 98 -50 81 -24 -13 -32 -40 -29 -95 2 -24 0
-47 -3 -51 -6 -5 -62 -20 -118 -30 -14 -3 -43 -10 -65 -16 -47 -13 -52 -15
-85 -21 -38 -7 -329 -106 -375 -127 -69 -31 -114 -51 -122 -52 -13 -1 -225
-112 -273 -143 -25 -16 -47 -28 -50 -28 -3 1 -17 -8 -31 -18 -15 -10 -35 -20
-45 -22 -11 -1 -28 -8 -38 -14 -14 -8 -27 -8 -45 -1 -54 22 -67 26 -110 38
-65 17 -100 25 -156 33 -11 1 -24 5 -30 8 -12 7 -347 4 -387 -4 -16 -3 -47 -9
-70 -13 -49 -9 -57 -11 -60 -14 -2 -1 -12 -3 -22 -5 -11 -2 -31 -7 -45 -11
-14 -4 -29 -7 -33 -6 -5 1 -8 -3 -8 -10 0 -6 -3 -9 -6 -6 -9 10 -172 -58 -186
-77 -4 -5 -8 -7 -8 -3 0 28 -350 -215 -350 -243 0 -5 -6 -9 -12 -10 -16 -1
-137 -138 -185 -210 -20 -30 -41 -57 -47 -61 -6 -4 -7 -8 -2 -8 5 0 2 -8 -6
-17 -21 -24 -90 -157 -111 -213 -9 -25 -22 -58 -28 -75 -14 -35 -12 -26 -37
-135 -29 -119 -36 -187 -36 -320 1 -109 7 -184 19 -240 4 -14 7 -34 9 -45 6
-39 39 -150 47 -159 5 -6 9 -16 9 -22 0 -14 69 -159 101 -214 70 -117 228
-291 318 -350 13 -8 29 -20 35 -25 39 -35 268 -155 296 -155 9 0 20 -4 25 -9
6 -6 21 -12 35 -15 14 -2 32 -7 40 -10 8 -3 29 -8 45 -11 17 -3 44 -9 60 -12
17 -3 38 -6 48 -7 9 0 17 -3 17 -6 0 -6 37 -8 175 -10 l100 -1 77 -82 c42 -45
75 -83 73 -85 -2 -3 -53 -6 -112 -8 -59 -1 -108 -3 -108 -4 0 -2 -36 -9 -85
-15 -50 -7 -85 -13 -85 -15 0 -1 -7 -3 -15 -5 -56 -10 -175 -48 -193 -60 -12
-8 -26 -14 -32 -14 -25 0 -122 -61 -170 -106 -53 -49 -102 -135 -90 -155 3 -6
1 -10 -5 -10 -6 0 -9 -4 -6 -9 3 -5 8 -29 11 -52 3 -24 14 -56 25 -71 11 -15
20 -29 20 -31 0 -10 70 -77 79 -77 6 0 11 -4 11 -10 0 -5 6 -10 14 -10 8 0 16
-4 18 -9 4 -11 165 -88 198 -95 14 -3 41 -10 60 -16 73 -23 127 -33 305 -56
58 -8 334 -7 385 1 19 3 55 8 80 11 75 9 84 11 133 34 129 61 191 191 135 285
-10 17 -18 33 -18 37 0 4 33 5 72 3 69 -3 92 -10 303 -91 11 -4 22 -8 25 -9 3
0 30 -8 60 -17 89 -27 209 -58 243 -64 18 -2 41 -7 52 -9 11 -2 36 -7 55 -10
19 -2 46 -7 60 -10 14 -3 48 -8 75 -10 28 -3 60 -7 72 -9 32 -7 267 -19 353
-19 143 1 345 14 440 29 19 3 46 7 60 9 14 2 41 7 60 10 19 4 53 8 75 10 22 2
40 4 40 5 0 1 52 15 115 31 63 16 126 32 140 36 27 7 151 6 158 -2 3 -3 -8
-15 -24 -27 -16 -13 -41 -36 -57 -53 -105 -110 -71 -294 58 -311 137 -18 236
-24 415 -24 155 -1 213 2 335 16 28 3 68 7 90 9 22 2 40 4 40 5 0 1 11 3 25 6
35 5 93 17 105 20 11 3 48 11 82 18 46 9 207 69 258 95 109 57 217 154 230
207 19 78 20 93 8 137 -32 126 -139 211 -398 317 -41 17 -131 44 -151 45 -11
1 -25 5 -31 8 -9 6 -31 10 -100 21 -28 5 -20 16 54 77 73 59 257 240 312 305
14 16 50 63 81 105 l56 76 45 -5 c69 -8 289 -8 344 1 60 8 93 14 120 21 57 13
81 19 90 25 6 3 15 6 20 6 15 0 124 42 175 68 326 159 592 434 755 779 139
295 198 620 171 942 -5 50 -10 99 -12 110 -2 12 -6 35 -8 51 -3 17 -12 59 -21
95 -9 36 -18 75 -21 88 -2 13 -20 65 -40 115 -19 51 -36 96 -37 102 -1 5 -8
16 -15 23 -7 8 -10 18 -7 23 4 5 3 9 -2 9 -4 0 -17 20 -28 45 -11 25 -23 45
-27 45 -5 0 -8 6 -8 13 0 36 -221 317 -249 317 -6 0 -11 6 -11 13 0 6 -30 35
-65 62 -36 28 -65 53 -65 57 0 4 -9 10 -20 13 -11 3 -26 12 -33 18 -39 36
-249 139 -309 153 -5 1 -9 2 -10 4 -2 1 -10 3 -18 5 -8 2 -41 11 -73 19 -31 9
-74 18 -95 21 -66 10 -240 23 -245 19z"/>
</g>
</svg>
